<?xml version="1.0" encoding="UTF-8"?>
<svg xmlns="http://www.w3.org/2000/svg" viewBox="0 0 590.05 551.19">
  <defs>
    <style>.rim{fill:#d46631}.net{fill:#fff}</style>
  </defs>
  <path class="rim" d="M156.63,321.3h276.79c12.5,0,12.5-19.39,0-19.39H156.63c-12.5,0-12.5,19.39,0,19.39h0Z"/>
  <path class="net" d="M408.5,321.3c-6.9,11.66-15.91,24.94-24.28,35.29l-28.86,30.66,20.17-65.95h-9.45l-19.2,62.77-19.48-21.52.1-.11-.42-1.53,4.64-39.61h-10.35l-4.43,39.06-17.41,18.03v-57.09h-9.03v57.09l-17.41-18.03-4.43-39.06h-10.36l4.64,39.61-.41,1.53.1.11-19.48,21.52-19.2-62.77h-9.45l20.17,65.95-28.86-30.66c-9.33-12.55-18.74-25.09-24.28-35.29h-15.66c10.54,10.82,27.8,30.99,31.7,50.46,5.95,29.76,11.73,177.94,11.75,179.43h8.49l25.01-28.08,19.46,26.83h9.87s22.86-21.82,22.86-21.82l22.86,21.82h9.87s19.46-26.83,19.46-26.83l25.01,28.08h8.49c.01-1.49,5.79-149.67,11.75-179.43,3.89-19.47,21.16-39.64,31.7-50.46h-15.66ZM352.38,403.59l17.02,18.8-21.01,24.76-18.24-19.93,22.23-23.63ZM342.49,454.09l-21.93,25.83-19.54-21.75,22.92-24.36,18.55,20.27ZM321.11,369.05l25.19,27.83-22.27,23.66-25.66-28.04,22.74-23.45ZM317.82,427.14l-22.8,24.22-22.8-24.22,22.8-24.91,22.8,24.91ZM289.04,458.17l-19.54,21.75-21.93-25.83,18.55-20.27,22.92,24.36ZM268.94,369.05l22.74,23.45-25.66,28.04-22.27-23.66,25.19-27.83ZM237.67,403.59l22.23,23.63-18.24,19.93-21.01-24.76,17.01-18.8ZM210.5,374.72l20.96,22.28-17.75,19.61c-.84-17.29-1.89-32.29-3.21-41.89ZM214.28,429.44l.26-.29,20.98,24.72-19.81,21.64c-.36-15.25-.83-31.17-1.44-46.07ZM216.95,536.7c-.12-11.33-.51-27.65-.93-48.13l.63-.7,20.69,27.84-20.39,20.98ZM222.86,481.09l18.56-20.28,21.98,25.89-19.9,22.15-20.64-27.77ZM267.77,541.51l-18.77-25.26,20.31-22.6,21.76,25.63-23.29,22.23ZM275.39,486.87l19.63-21.85,19.63,21.85-19.63,23.13-19.63-23.13ZM322.29,541.51l-23.29-22.23,21.75-25.63,20.31,22.6-18.77,25.26ZM346.55,508.86l-19.9-22.15,21.98-25.89,18.56,20.28-20.64,27.77ZM373.1,536.7l-20.39-20.98,20.69-27.84.63.7c-.42,20.47-.81,36.8-.93,48.13ZM374.33,475.51l-19.81-21.64,20.98-24.72.26.29c-.61,14.9-1.08,30.82-1.44,46.07ZM376.34,416.61l-17.75-19.61,20.96-22.28c-1.32,9.6-2.37,24.59-3.21,41.89Z"/>
</svg>
